<svg viewBox="0 0 429.656 394.3922" width="5000" height="4589.627515966261" xmlns="http://www.w3.org/2000/svg" xmlns:xlink="http://www.w3.org/1999/xlink" preserveAspectRatio="none"><defs></defs><style>.aD6z1nYkhcolor {fill:#FF9A9A;fill-opacity:1;}.aE9UAYldALcolors-0 {fill:#6FCDD4;fill-opacity:1;}.ao9bBVflQhcolors-0 {fill:#6FCDD4;fill-opacity:1;}.ao9bBVflQhcolors-1 {fill:#FFFFFF;fill-opacity:1;}.ao9bBVflQhcolors-2 {fill:#FF9A9A;fill-opacity:1;}.arBdy8_vslcolor {fill:#FFFFFF;fill-opacity:1;}.aUQXBO_yB80filter-floo {flood-color:#FFFFFF;flood-opacity:1;}</style><defs>
      <filter
        x="-1000"
        y="-1000"
        width="5000"
        height="5000"
        id="UQXBO_yB8"
        filterUnits="userSpaceOnUse"
        primitiveUnits="userSpaceOnUse"
        color-interpolation-filters="sRGB">
        
    <feGaussianBlur in="SourceGraphic" stdDeviation="0"/>
    <feOffset dx="-14" dy="4" result="YjWtUg7a1q"/>
    <feFlood flood-color="#FFFFFF" flood-opacity="1" in="YjWtUg7a1q" />
    <feComposite  in2="YjWtUg7a1q" operator="in" result="QRCplk1uQ8"/><feMerge result="FAOlCbYjmN"><feMergeNode in="QRCplk1uQ8" /><feMergeNode in="SourceGraphic" /></feMerge>
      </filter></defs><g opacity="1" transform="rotate(-2 8.48679999999996 13.649799999999999)">
<svg width="390.5956" height="380.9562" x="8.48679999999996" y="13.649799999999999" version="1.1" preserveAspectRatio="none" viewBox="4.84 -37.6 124.88 121.80000000000001">
  <g transform="matrix(1 0 0 1 0 0)" class="arBdy8_vslcolor"><path d="M17.48 0.20Q13.92 0.20 11.06-1.40Q8.20-3 6.52-6.10Q4.84-9.20 4.84-13.52L4.84-13.52Q4.84-19.60 7.06-24.24Q9.28-28.88 13.10-31.40Q16.92-33.92 21.56-33.92L21.56-33.92Q25.12-33.92 27.98-32.32Q30.84-30.72 32.52-27.62Q34.20-24.52 34.20-20.20L34.20-20.20Q34.20-14.12 31.98-9.48Q29.76-4.84 25.94-2.32Q22.12 0.20 17.48 0.20L17.48 0.20ZM17.88-4.52Q21-4.52 23.38-6.44Q25.76-8.36 27.04-11.78Q28.32-15.20 28.32-19.52L28.32-19.52Q28.32-24.28 26.32-26.74Q24.32-29.20 21.16-29.20L21.16-29.20Q18.08-29.20 15.72-27.30Q13.36-25.40 12.04-21.98Q10.72-18.56 10.72-14.20L10.72-14.20Q10.72-9.44 12.72-6.98Q14.72-4.52 17.88-4.52L17.88-4.52Z M60.64-8.92Q61.16-8.92 61.46-8.44Q61.76-7.96 61.76-7.12L61.76-7.12Q61.76-5.52 61-4.64L61-4.64Q59.16-2.52 57.22-1.16Q55.28 0.20 52.80 0.20L52.80 0.20Q50.76 0.20 49.72-0.98Q48.68-2.16 48.68-4.40L48.68-4.40Q48.68-5.52 49.24-8.40L49.24-8.40Q49.76-10.92 49.76-11.88L49.76-11.88Q49.76-12.52 49.32-12.52L49.32-12.52Q48.80-12.52 47.84-11.18Q46.88-9.84 45.92-7.64Q44.96-5.44 44.36-3L44.36-3Q43.60 0.20 40.60 0.20L40.60 0.20Q39.40 0.20 39.02-0.66Q38.64-1.52 38.64-3.76L38.64-3.76Q38.64-5.04 38.68-5.80L38.68-5.80L38.72-9Q38.72-15.16 39.98-21.84Q41.24-28.52 43.70-33.06Q46.16-37.60 49.60-37.60L49.60-37.60Q51.44-37.60 52.58-36.02Q53.72-34.44 53.72-31.92L53.72-31.92Q53.72-27.88 51.36-23.54Q49-19.20 43.68-13.40L43.68-13.40Q43.56-11.32 43.56-9.12L43.56-9.12Q44.88-12.52 46.50-14.66Q48.12-16.80 49.70-17.72Q51.28-18.64 52.60-18.64L52.60-18.64Q55.20-18.64 55.20-16.04L55.20-16.04Q55.20-14.48 54.32-10.40L54.32-10.40Q53.56-6.92 53.56-5.80L53.56-5.80Q53.56-4.20 54.72-4.20L54.72-4.20Q55.52-4.20 56.62-5.18Q57.72-6.16 59.56-8.36L59.56-8.36Q60.04-8.92 60.64-8.92L60.64-8.92ZM48.76-33.64Q48.04-33.64 47.16-31.58Q46.28-29.52 45.46-26.02Q44.64-22.52 44.12-18.40L44.12-18.40Q46.60-21.32 48.22-24.76Q49.84-28.20 49.84-31L49.84-31Q49.84-32.28 49.56-32.96Q49.28-33.64 48.76-33.64L48.76-33.64Z M70.20-9.36Q69.40-9.36 68.88-9.72Q68.36-10.08 68.36-10.84L68.36-10.84L68.40-11.16Q69.08-15.64 70.24-21.36Q71.40-27.08 72.40-31.24L72.40-31.24Q73.04-33.80 75.88-33.80L75.88-33.80Q78.44-33.80 78.44-32.16L78.44-32.16Q78.44-31.80 78.32-31.36L78.32-31.36Q77.28-27.12 75.56-21.10Q73.84-15.08 72.28-10.64L72.28-10.64Q71.84-9.36 70.20-9.36L70.20-9.36ZM68.68 0.20Q66.92 0.20 66.02-0.76Q65.12-1.72 65.12-3.28L65.12-3.28Q65.12-5.08 66.14-6.16Q67.16-7.24 69.00-7.24L69.00-7.24Q70.76-7.24 71.66-6.38Q72.56-5.52 72.56-3.84L72.56-3.84Q72.56-2 71.52-0.90Q70.48 0.20 68.68 0.20L68.68 0.20Z M14.16 42.20Q12.68 42.20 12.04 41.54Q11.40 40.88 11.40 39.04L11.40 39.04Q11.40 37.80 11.66 35.86Q11.92 33.92 12.52 30.52L12.52 30.52Q13.56 24.24 14.16 19.64L14.16 19.64Q14.52 16.76 14.52 14.84L14.52 14.84Q14.52 13.04 13.20 13.04L13.20 13.04Q12.16 13.04 10.70 14.10Q9.24 15.16 7.48 17.48L7.48 17.48Q6.92 18.24 6.24 18.24L6.24 18.24Q5.68 18.24 5.26 17.70Q4.84 17.16 4.84 16.48L4.84 16.48Q4.84 15.84 5.10 15.18Q5.36 14.52 5.96 13.68L5.96 13.68Q7.88 11 10.24 9.54Q12.60 8.08 14.96 8.08L14.96 8.08Q17.16 8.08 18.34 9.48Q19.52 10.88 19.52 13.56L19.52 13.56Q19.52 14.64 19.32 16.10Q19.12 17.56 18.96 18.48Q18.80 19.40 18.72 19.76L18.72 19.76Q21 13.24 23.84 10.66Q26.68 8.08 30.08 8.08L30.08 8.08Q32.68 8.08 34.18 9.92Q35.68 11.76 35.68 15.12L35.68 15.12Q35.68 16.44 35.32 18.40L35.32 18.40Q37.32 12.88 40 10.48Q42.68 8.08 46.16 8.08L46.16 8.08Q48.96 8.08 50.46 9.88Q51.96 11.68 51.96 14.92L51.96 14.92Q51.96 16.68 51.44 19.20L51.44 19.20L49 30.64Q48.60 32.64 48.60 34.08L48.60 34.08Q48.60 35.76 49.38 36.60Q50.16 37.44 51.56 37.44L51.56 37.44Q52.88 37.44 54.14 36.56Q55.40 35.68 57.12 33.64L57.12 33.64Q57.60 33.08 58.20 33.08L58.20 33.08Q58.72 33.08 59.02 33.56Q59.32 34.04 59.32 34.88L59.32 34.88Q59.32 36.44 58.56 37.36L58.56 37.36Q56.48 39.88 54.44 41.04Q52.40 42.20 50.16 42.20L50.16 42.20Q46.76 42.20 44.84 40.18Q42.92 38.16 42.92 34.76L42.92 34.76Q42.92 32.40 43.88 27.92L43.88 27.92L45.48 20.60Q45.56 20.24 45.76 19.32Q45.96 18.40 46.08 17.58Q46.20 16.76 46.20 15.96L46.20 15.96Q46.20 14.56 45.66 13.86Q45.12 13.16 44.12 13.16L44.12 13.16Q42.24 13.16 40.18 15.58Q38.12 18 36.26 23.60Q34.40 29.20 33.24 38.16L33.24 38.16Q32.96 40.56 32.26 41.38Q31.56 42.20 30 42.20L30 42.20Q28.64 42.20 28.02 41.56Q27.40 40.92 27.40 39.16L27.40 39.16Q27.40 37.52 27.84 34.86Q28.28 32.20 28.96 28.60L28.96 28.60Q30.80 18.92 30.80 16.12L30.80 16.12Q30.80 14.60 30.22 13.88Q29.64 13.16 28.48 13.16L28.48 13.16Q26.52 13.16 24.44 15.38Q22.36 17.60 20.38 23.26Q18.40 28.92 17.08 38.56L17.08 38.56Q16.80 40.60 16.26 41.40Q15.72 42.20 14.16 42.20L14.16 42.20Z M92.08 33.04Q92.32 32.96 92.80 32.96L92.80 32.96Q94.16 32.96 94.16 34.72L94.16 34.72Q94.16 35.68 93.74 36.34Q93.32 37 92.44 37.16L92.44 37.16Q88.80 37.84 85.28 38.68L85.28 38.68L85.16 39.64Q84.04 47.52 80.70 51.30Q77.36 55.08 72.36 55.08L72.36 55.08Q69.04 55.08 67.22 53.46Q65.40 51.84 65.40 49.32L65.40 49.32Q65.40 45.12 69.16 41.84Q72.92 38.56 80.56 36.04L80.56 36.04L81.36 30.40Q81.52 29.44 81.76 27.84L81.76 27.84Q79.88 32.80 76.96 35.24Q74.04 37.68 70.44 37.68L70.44 37.68Q67 37.68 65.20 35.58Q63.40 33.48 63.40 30.16L63.40 30.16Q63.40 28.68 63.72 26.90Q64.04 25.12 64.72 22.08L64.72 22.08Q65.32 19.32 65.62 17.68Q65.92 16.04 65.92 14.76L65.92 14.76Q65.92 12.84 64.44 12.84L64.44 12.84Q63.28 12.84 61.70 13.98Q60.12 15.12 58.36 17.48L58.36 17.48Q57.80 18.24 57.12 18.24L57.12 18.24Q56.56 18.24 56.14 17.70Q55.72 17.16 55.72 16.48L55.72 16.48Q55.72 15.24 56.84 13.68L56.84 13.68Q60.92 8.08 66.40 8.08L66.40 8.08Q68.84 8.08 70.22 9.56Q71.60 11.04 71.60 13.92L71.60 13.92Q71.60 16 71.22 18.18Q70.84 20.36 70.08 23.72L70.08 23.72Q69.60 25.72 69.36 26.94Q69.12 28.16 69.12 28.96L69.12 28.96Q69.12 31 69.84 31.88Q70.56 32.76 72.36 32.76L72.36 32.76Q74.52 32.76 76.78 30.38Q79.04 28 80.86 23.16Q82.68 18.32 83.48 11.32L83.48 11.32Q83.68 9.56 84.40 8.82Q85.12 8.08 86.48 8.08L86.48 8.08Q89.28 8.08 89.28 10.88L89.28 10.88Q89.28 11.36 89.24 11.64L89.24 11.64Q88.40 17.60 87.68 22.40L87.68 22.40Q87.28 25.28 86.82 28.32Q86.36 31.36 85.92 34.48L85.92 34.48Q88.84 33.68 92.08 33.04L92.08 33.04ZM79.92 40.52L79.96 40.24Q70.28 43.60 70.28 48.40L70.28 48.40Q70.28 49.52 70.98 50.26Q71.68 51 72.96 51L72.96 51Q78.52 51 79.92 40.52L79.92 40.52Z M52.72 66.72Q53.64 66.72 54.06 67.12Q54.48 67.52 54.48 68.16L54.48 68.16Q54.48 69.20 53.86 70Q53.24 70.80 51.92 70.84L51.92 70.84Q48.76 70.88 46.24 70.36L46.24 70.36Q43.44 76.32 39.50 80.26Q35.56 84.20 31.72 84.20L31.72 84.20Q28.20 84.20 26.44 80.46Q24.68 76.72 24.44 70.44L24.44 70.44Q22.04 77.40 19.02 80.80Q16 84.20 12.60 84.20L12.60 84.20Q8.76 84.20 6.80 79.42Q4.84 74.64 4.84 66.56L4.84 66.56Q4.84 60.68 5.88 53.64L5.88 53.64Q6.16 51.64 6.90 50.86Q7.64 50.08 9.24 50.08L9.24 50.08Q10.44 50.08 11.10 50.60Q11.76 51.12 11.76 52.52L11.76 52.52Q11.76 52.80 11.68 53.60L11.68 53.60Q10.48 61.80 10.48 67.56L10.48 67.56Q10.48 72.92 11.40 75.84Q12.32 78.76 13.88 78.76L13.88 78.76Q15.28 78.76 17.26 75.82Q19.24 72.88 21.20 67.10Q23.16 61.32 24.52 53.32L24.52 53.32Q24.84 51.48 25.70 50.78Q26.56 50.08 28.04 50.08L28.04 50.08Q29.28 50.08 29.86 50.62Q30.44 51.16 30.44 52.24L30.44 52.24Q30.44 52.88 30.36 53.24L30.36 53.24Q29.24 59.76 29.24 66.28L29.24 66.28Q29.24 70.72 29.54 73.36Q29.84 76 30.70 77.38Q31.56 78.76 33.20 78.76L33.20 78.76Q35.12 78.76 37.48 75.86Q39.84 72.96 41.80 68.64L41.80 68.64Q39.36 67.12 38.12 64.70Q36.88 62.28 36.88 59.12L36.88 59.12Q36.88 55.96 37.86 53.78Q38.84 51.60 40.54 50.52Q42.24 49.44 44.32 49.44L44.32 49.44Q46.88 49.44 48.38 51.28Q49.88 53.12 49.88 56.32L49.88 56.32Q49.88 60.84 47.92 66.36L47.92 66.36Q49.96 66.72 52.72 66.72L52.72 66.72ZM40.92 58.84Q40.92 62.76 43.44 64.64L43.44 64.64Q45 60.16 45 57.24L45 57.24Q45 55.56 44.56 54.78Q44.12 54 43.36 54L43.36 54Q42.28 54 41.60 55.26Q40.92 56.52 40.92 58.84L40.92 58.84Z M72.60 71.72Q73.12 71.72 73.40 72.24Q73.68 72.76 73.68 73.56L73.68 73.56Q73.68 75.48 72.52 75.84L72.52 75.84Q70.12 76.68 67.24 76.80L67.24 76.80Q66.48 80.16 64.24 82.18Q62 84.20 59.16 84.20L59.16 84.20Q56.76 84.20 55.06 83.04Q53.36 81.88 52.48 79.96Q51.60 78.04 51.60 75.80L51.60 75.80Q51.60 72.76 52.76 70.38Q53.92 68 55.96 66.66Q58 65.32 60.48 65.32L60.48 65.32Q63.52 65.32 65.38 67.42Q67.24 69.52 67.56 72.60L67.56 72.60Q69.44 72.48 72.04 71.80L72.04 71.80Q72.36 71.72 72.60 71.72L72.60 71.72ZM59.48 79.96Q60.76 79.96 61.70 78.92Q62.64 77.88 62.96 75.92L62.96 75.92Q61.72 75.08 61.06 73.72Q60.40 72.36 60.40 70.84L60.40 70.84Q60.40 70.20 60.52 69.56L60.52 69.56L60.32 69.56Q58.72 69.56 57.66 71.10Q56.60 72.64 56.60 75.44L56.60 75.44Q56.60 77.64 57.46 78.80Q58.32 79.96 59.48 79.96L59.48 79.96Z M74.68 84.20Q73.16 84.20 72.54 82.60Q71.92 81 71.92 77.48L71.92 77.48Q71.92 72.28 73.40 67.60L73.40 67.60Q73.76 66.44 74.58 65.90Q75.40 65.36 76.88 65.36L76.88 65.36Q77.68 65.36 78.00 65.56Q78.32 65.76 78.32 66.32L78.32 66.32Q78.32 66.96 77.72 69.20L77.72 69.20Q77.32 70.80 77.08 72Q76.84 73.20 76.68 74.96L76.68 74.96Q78.00 71.52 79.64 69.36Q81.28 67.20 82.86 66.28Q84.44 65.36 85.76 65.36L85.76 65.36Q88.36 65.36 88.36 67.96L88.36 67.96Q88.36 68.48 88.00 70.48L88.00 70.48Q87.68 72.08 87.68 72.48L87.68 72.48Q87.68 73.88 88.68 73.88L88.68 73.88Q89.80 73.88 91.56 72.12L91.56 72.12Q92.08 71.60 92.64 71.60L92.64 71.60Q93.16 71.60 93.46 72.06Q93.76 72.52 93.76 73.28L93.76 73.28Q93.76 74.76 92.96 75.60L92.96 75.60Q91.84 76.76 90.34 77.58Q88.84 78.40 87.16 78.40L87.16 78.40Q85.04 78.40 83.94 77.32Q82.84 76.24 82.84 74.40L82.84 74.40Q82.84 73.80 82.96 73.20L82.96 73.20Q83.04 72.40 83.04 72.12L83.04 72.12Q83.04 71.48 82.60 71.48L82.60 71.48Q82.00 71.48 81.02 72.82Q80.04 74.16 79.08 76.36Q78.12 78.56 77.52 81L77.52 81Q77.08 82.88 76.50 83.54Q75.92 84.20 74.68 84.20L74.68 84.20Z M106.80 75.08Q107.32 75.08 107.62 75.56Q107.92 76.04 107.92 76.88L107.92 76.88Q107.92 78.48 107.16 79.36L107.16 79.36Q105.44 81.48 103.42 82.84Q101.40 84.20 98.84 84.20L98.84 84.20Q95.32 84.20 93.62 81Q91.92 77.80 91.92 72.72L91.92 72.72Q91.92 67.84 93.18 61.60Q94.44 55.36 96.90 50.88Q99.36 46.40 102.76 46.40L102.76 46.40Q104.68 46.40 105.78 48.18Q106.88 49.96 106.88 53.28L106.88 53.28Q106.88 58.04 104.24 64.32Q101.60 70.60 97.08 76.76L97.08 76.76Q97.36 78.40 98.00 79.10Q98.64 79.80 99.68 79.80L99.68 79.80Q101.32 79.80 102.56 78.86Q103.80 77.92 105.72 75.64L105.72 75.64Q106.20 75.08 106.80 75.08L106.80 75.08ZM101.88 50.36Q100.96 50.36 99.80 53.68Q98.64 57 97.76 61.92Q96.88 66.84 96.80 71.36L96.80 71.36Q99.64 66.68 101.32 61.98Q103.00 57.28 103.00 53.40L103.00 53.40Q103.00 50.36 101.88 50.36L101.88 50.36Z M128.60 75.08Q129.12 75.08 129.42 75.56Q129.72 76.04 129.72 76.88L129.72 76.88Q129.72 78.48 128.96 79.36L128.96 79.36Q127.32 81.36 125.36 82.78Q123.40 84.20 121.48 84.20L121.48 84.20Q118.44 84.20 116.84 80.64L116.84 80.64Q115.16 82.76 113.90 83.48Q112.64 84.20 110.96 84.20L110.96 84.20Q108.52 84.20 106.94 82.38Q105.36 80.56 105.36 77.64L105.36 77.64Q105.36 74.44 106.72 71.70Q108.08 68.96 110.46 67.22Q112.84 65.48 115.80 65.16L115.80 65.16Q116.56 57.40 118.70 51.90Q120.84 46.40 124.32 46.40L124.32 46.40Q126.04 46.40 127.18 47.96Q128.32 49.52 128.32 52.68L128.32 52.68Q128.32 57.16 126.12 63.16Q123.92 69.16 120.24 75.48L120.24 75.48Q120.40 77.80 120.94 78.80Q121.48 79.80 122.32 79.80L122.32 79.80Q123.40 79.80 124.52 78.84Q125.64 77.88 127.52 75.64L127.52 75.64Q128.00 75.08 128.60 75.08L128.60 75.08ZM123.88 50.32Q123.12 50.32 122.36 53.02Q121.60 55.72 121.06 60.08Q120.52 64.44 120.28 69.20L120.28 69.20Q124.76 59.44 124.76 53.52L124.76 53.52Q124.76 52 124.50 51.16Q124.24 50.32 123.88 50.32L123.88 50.32ZM112.36 80.16Q113.12 80.16 113.88 79.54Q114.64 78.92 115.80 77.24L115.80 77.24Q115.40 75.08 115.40 72.40L115.40 72.40Q115.40 71.44 115.48 69.28L115.48 69.28Q113.28 69.96 111.82 72.22Q110.36 74.48 110.36 77.24L110.36 77.24Q110.36 80.16 112.36 80.16L112.36 80.16Z"/></g>
</svg>
</g><g opacity="1" transform="rotate(-2 3.187999999999988 13.463999999999999)">
<svg width="385.7933" height="381.1604" x="3.187999999999988" y="13.463999999999999" version="1.1" preserveAspectRatio="none" viewBox="4.84 -37.6 123.28 121.80000000000001">
  <g transform="matrix(1 0 0 1 0 0)" class="aD6z1nYkhcolor"><path d="M17.48 0.20Q13.92 0.20 11.06-1.40Q8.20-3 6.52-6.10Q4.84-9.20 4.84-13.52L4.84-13.52Q4.84-19.60 7.06-24.24Q9.28-28.88 13.10-31.40Q16.92-33.92 21.56-33.92L21.56-33.92Q25.12-33.92 27.98-32.32Q30.84-30.72 32.52-27.62Q34.20-24.52 34.20-20.20L34.20-20.20Q34.20-14.12 31.98-9.48Q29.76-4.84 25.94-2.32Q22.12 0.20 17.48 0.20L17.48 0.20ZM17.88-4.52Q21-4.52 23.38-6.44Q25.76-8.36 27.04-11.78Q28.32-15.20 28.32-19.52L28.32-19.52Q28.32-24.28 26.32-26.74Q24.32-29.20 21.16-29.20L21.16-29.20Q18.08-29.20 15.72-27.30Q13.36-25.40 12.04-21.98Q10.72-18.56 10.72-14.20L10.72-14.20Q10.72-9.44 12.72-6.98Q14.72-4.52 17.88-4.52L17.88-4.52Z M60.24-8.92Q60.76-8.92 61.06-8.44Q61.36-7.96 61.36-7.12L61.36-7.12Q61.36-5.52 60.60-4.64L60.60-4.64Q58.76-2.52 56.82-1.16Q54.88 0.20 52.40 0.20L52.40 0.20Q50.36 0.20 49.32-0.98Q48.28-2.16 48.28-4.40L48.28-4.40Q48.28-5.52 48.84-8.40L48.84-8.40Q49.36-10.92 49.36-11.88L49.36-11.88Q49.36-12.52 48.92-12.52L48.92-12.52Q48.40-12.52 47.44-11.18Q46.48-9.84 45.52-7.64Q44.56-5.44 43.96-3L43.96-3Q43.20 0.20 40.20 0.20L40.20 0.20Q39.00 0.20 38.62-0.66Q38.24-1.52 38.24-3.76L38.24-3.76Q38.24-5.04 38.28-5.80L38.28-5.80L38.32-9Q38.32-15.16 39.58-21.84Q40.84-28.52 43.30-33.06Q45.76-37.60 49.20-37.60L49.20-37.60Q51.04-37.60 52.18-36.02Q53.32-34.44 53.32-31.92L53.32-31.92Q53.32-27.88 50.96-23.54Q48.60-19.20 43.28-13.40L43.28-13.40Q43.16-11.32 43.16-9.12L43.16-9.12Q44.48-12.52 46.10-14.66Q47.72-16.80 49.30-17.72Q50.88-18.64 52.20-18.64L52.20-18.64Q54.80-18.64 54.80-16.04L54.80-16.04Q54.80-14.48 53.92-10.40L53.92-10.40Q53.16-6.92 53.16-5.80L53.16-5.80Q53.16-4.20 54.32-4.20L54.32-4.20Q55.12-4.20 56.22-5.18Q57.32-6.16 59.16-8.36L59.16-8.36Q59.64-8.92 60.24-8.92L60.24-8.92ZM48.36-33.64Q47.64-33.64 46.76-31.58Q45.88-29.52 45.06-26.02Q44.24-22.52 43.72-18.40L43.72-18.40Q46.20-21.32 47.82-24.76Q49.44-28.20 49.44-31L49.44-31Q49.44-32.28 49.16-32.96Q48.88-33.64 48.36-33.64L48.36-33.64Z M69.40-9.36Q68.60-9.36 68.08-9.72Q67.56-10.08 67.56-10.84L67.56-10.84L67.60-11.16Q68.28-15.64 69.44-21.36Q70.60-27.08 71.60-31.24L71.60-31.24Q72.24-33.80 75.08-33.80L75.08-33.80Q77.64-33.80 77.64-32.16L77.64-32.16Q77.64-31.80 77.52-31.36L77.52-31.36Q76.48-27.12 74.76-21.10Q73.04-15.08 71.48-10.64L71.48-10.64Q71.04-9.36 69.40-9.36L69.40-9.36ZM67.88 0.20Q66.12 0.20 65.22-0.76Q64.32-1.72 64.32-3.28L64.32-3.28Q64.32-5.08 65.34-6.16Q66.36-7.24 68.20-7.24L68.20-7.24Q69.96-7.24 70.86-6.38Q71.76-5.52 71.76-3.84L71.76-3.84Q71.76-2 70.72-0.90Q69.68 0.20 67.88 0.20L67.88 0.20Z M14.16 42.20Q12.68 42.20 12.04 41.54Q11.40 40.88 11.40 39.04L11.40 39.04Q11.40 37.80 11.66 35.86Q11.92 33.92 12.52 30.52L12.52 30.52Q13.56 24.24 14.16 19.64L14.16 19.64Q14.52 16.76 14.52 14.84L14.52 14.84Q14.52 13.04 13.20 13.04L13.20 13.04Q12.16 13.04 10.70 14.10Q9.24 15.16 7.48 17.48L7.48 17.48Q6.92 18.24 6.24 18.24L6.24 18.24Q5.68 18.24 5.26 17.70Q4.84 17.16 4.84 16.48L4.84 16.48Q4.84 15.84 5.10 15.18Q5.36 14.52 5.96 13.68L5.96 13.68Q7.88 11 10.24 9.54Q12.60 8.08 14.96 8.08L14.96 8.08Q17.16 8.08 18.34 9.48Q19.52 10.88 19.52 13.56L19.52 13.56Q19.52 14.64 19.32 16.10Q19.12 17.56 18.96 18.48Q18.80 19.40 18.72 19.76L18.72 19.76Q21 13.24 23.84 10.66Q26.68 8.08 30.08 8.08L30.08 8.08Q32.68 8.08 34.18 9.92Q35.68 11.76 35.68 15.12L35.68 15.12Q35.68 16.44 35.32 18.40L35.32 18.40Q37.32 12.88 40 10.48Q42.68 8.08 46.16 8.08L46.16 8.08Q48.96 8.08 50.46 9.88Q51.96 11.68 51.96 14.92L51.96 14.92Q51.96 16.68 51.44 19.20L51.44 19.20L49 30.64Q48.60 32.64 48.60 34.08L48.60 34.08Q48.60 35.76 49.38 36.60Q50.16 37.44 51.56 37.44L51.56 37.44Q52.88 37.44 54.14 36.56Q55.40 35.68 57.12 33.64L57.12 33.64Q57.60 33.08 58.20 33.08L58.20 33.08Q58.72 33.08 59.02 33.56Q59.32 34.04 59.32 34.88L59.32 34.88Q59.32 36.44 58.56 37.36L58.56 37.36Q56.48 39.88 54.44 41.04Q52.40 42.20 50.16 42.20L50.16 42.20Q46.76 42.20 44.84 40.18Q42.92 38.16 42.92 34.76L42.92 34.76Q42.92 32.40 43.88 27.92L43.88 27.92L45.48 20.60Q45.56 20.24 45.76 19.32Q45.96 18.40 46.08 17.58Q46.20 16.76 46.20 15.96L46.20 15.96Q46.20 14.56 45.66 13.86Q45.12 13.16 44.12 13.16L44.12 13.16Q42.24 13.16 40.18 15.58Q38.12 18 36.26 23.60Q34.40 29.20 33.24 38.16L33.24 38.16Q32.96 40.56 32.26 41.38Q31.56 42.20 30 42.20L30 42.20Q28.64 42.20 28.02 41.56Q27.40 40.92 27.40 39.16L27.40 39.16Q27.40 37.52 27.84 34.86Q28.28 32.20 28.96 28.60L28.96 28.60Q30.80 18.92 30.80 16.12L30.80 16.12Q30.80 14.60 30.22 13.88Q29.64 13.16 28.48 13.16L28.48 13.16Q26.52 13.16 24.44 15.38Q22.36 17.60 20.38 23.26Q18.40 28.92 17.08 38.56L17.08 38.56Q16.80 40.60 16.26 41.40Q15.72 42.20 14.16 42.20L14.16 42.20Z M91.68 33.04Q91.92 32.96 92.40 32.96L92.40 32.96Q93.76 32.96 93.76 34.72L93.76 34.72Q93.76 35.68 93.34 36.34Q92.92 37 92.04 37.16L92.04 37.16Q88.40 37.84 84.88 38.68L84.88 38.68L84.76 39.64Q83.64 47.52 80.30 51.30Q76.96 55.08 71.96 55.08L71.96 55.08Q68.64 55.08 66.82 53.46Q65 51.84 65 49.32L65 49.32Q65 45.12 68.76 41.84Q72.52 38.56 80.16 36.04L80.16 36.04L80.96 30.40Q81.12 29.44 81.36 27.84L81.36 27.84Q79.48 32.80 76.56 35.24Q73.64 37.68 70.04 37.68L70.04 37.68Q66.60 37.68 64.80 35.58Q63 33.48 63 30.16L63 30.16Q63 28.68 63.32 26.90Q63.64 25.12 64.32 22.08L64.32 22.08Q64.92 19.32 65.22 17.68Q65.52 16.04 65.52 14.76L65.52 14.76Q65.52 12.84 64.04 12.84L64.04 12.84Q62.88 12.84 61.30 13.98Q59.72 15.12 57.96 17.48L57.96 17.48Q57.40 18.24 56.72 18.24L56.72 18.24Q56.16 18.24 55.74 17.70Q55.32 17.16 55.32 16.48L55.32 16.48Q55.32 15.24 56.44 13.68L56.44 13.68Q60.52 8.08 66 8.08L66 8.08Q68.44 8.08 69.82 9.56Q71.20 11.04 71.20 13.92L71.20 13.92Q71.20 16 70.82 18.18Q70.44 20.36 69.68 23.72L69.68 23.72Q69.20 25.72 68.96 26.94Q68.72 28.16 68.72 28.96L68.72 28.96Q68.72 31 69.44 31.88Q70.16 32.76 71.96 32.76L71.96 32.76Q74.12 32.76 76.38 30.38Q78.64 28 80.46 23.16Q82.28 18.32 83.08 11.32L83.08 11.32Q83.28 9.56 84 8.82Q84.72 8.08 86.08 8.08L86.08 8.08Q88.88 8.08 88.88 10.88L88.88 10.88Q88.88 11.36 88.84 11.64L88.84 11.64Q88 17.60 87.28 22.40L87.28 22.40Q86.88 25.28 86.42 28.32Q85.96 31.36 85.52 34.48L85.52 34.48Q88.44 33.68 91.68 33.04L91.68 33.04ZM79.52 40.52L79.56 40.24Q69.88 43.60 69.88 48.40L69.88 48.40Q69.88 49.52 70.58 50.26Q71.28 51 72.56 51L72.56 51Q78.12 51 79.52 40.52L79.52 40.52Z M52.72 66.72Q53.64 66.72 54.06 67.12Q54.48 67.52 54.48 68.16L54.48 68.16Q54.48 69.20 53.86 70Q53.24 70.80 51.92 70.84L51.92 70.84Q48.76 70.88 46.24 70.36L46.24 70.36Q43.44 76.32 39.50 80.26Q35.56 84.20 31.72 84.20L31.72 84.20Q28.20 84.20 26.44 80.46Q24.68 76.72 24.44 70.44L24.44 70.44Q22.04 77.40 19.02 80.80Q16 84.20 12.60 84.20L12.60 84.20Q8.76 84.20 6.80 79.42Q4.84 74.64 4.84 66.56L4.84 66.56Q4.84 60.68 5.88 53.64L5.88 53.64Q6.16 51.64 6.90 50.86Q7.64 50.08 9.24 50.08L9.24 50.08Q10.44 50.08 11.10 50.60Q11.76 51.12 11.76 52.52L11.76 52.52Q11.76 52.80 11.68 53.60L11.68 53.60Q10.48 61.80 10.48 67.56L10.48 67.56Q10.48 72.92 11.40 75.84Q12.32 78.76 13.88 78.76L13.88 78.76Q15.28 78.76 17.26 75.82Q19.24 72.88 21.20 67.10Q23.16 61.32 24.52 53.32L24.52 53.32Q24.84 51.48 25.70 50.78Q26.56 50.08 28.04 50.08L28.04 50.08Q29.28 50.08 29.86 50.62Q30.44 51.16 30.44 52.24L30.44 52.24Q30.44 52.88 30.36 53.24L30.36 53.24Q29.24 59.76 29.24 66.28L29.24 66.28Q29.24 70.72 29.54 73.36Q29.84 76 30.70 77.38Q31.56 78.76 33.20 78.76L33.20 78.76Q35.12 78.76 37.48 75.86Q39.84 72.96 41.80 68.64L41.80 68.64Q39.36 67.12 38.12 64.70Q36.88 62.28 36.88 59.12L36.88 59.12Q36.88 55.96 37.86 53.78Q38.84 51.60 40.54 50.52Q42.24 49.44 44.32 49.44L44.32 49.44Q46.88 49.44 48.38 51.28Q49.88 53.12 49.88 56.32L49.88 56.32Q49.88 60.84 47.92 66.36L47.92 66.36Q49.96 66.72 52.72 66.72L52.72 66.72ZM40.92 58.84Q40.92 62.76 43.44 64.64L43.44 64.64Q45 60.16 45 57.24L45 57.24Q45 55.56 44.56 54.78Q44.12 54 43.36 54L43.36 54Q42.28 54 41.60 55.26Q40.92 56.52 40.92 58.84L40.92 58.84Z M72.20 71.72Q72.72 71.72 73 72.24Q73.28 72.76 73.28 73.56L73.28 73.56Q73.28 75.48 72.12 75.84L72.12 75.84Q69.72 76.68 66.84 76.80L66.84 76.80Q66.08 80.16 63.84 82.18Q61.60 84.20 58.76 84.20L58.76 84.20Q56.36 84.20 54.66 83.04Q52.96 81.88 52.08 79.96Q51.20 78.04 51.20 75.80L51.20 75.80Q51.20 72.76 52.36 70.38Q53.52 68 55.56 66.66Q57.60 65.32 60.08 65.32L60.08 65.32Q63.12 65.32 64.98 67.42Q66.84 69.52 67.16 72.60L67.16 72.60Q69.04 72.48 71.64 71.80L71.64 71.80Q71.96 71.72 72.20 71.72L72.20 71.72ZM59.08 79.96Q60.36 79.96 61.30 78.92Q62.24 77.88 62.56 75.92L62.56 75.92Q61.32 75.08 60.66 73.72Q60 72.36 60 70.84L60 70.84Q60 70.20 60.12 69.56L60.12 69.56L59.92 69.56Q58.32 69.56 57.26 71.10Q56.20 72.64 56.20 75.44L56.20 75.44Q56.20 77.64 57.06 78.80Q57.92 79.96 59.08 79.96L59.08 79.96Z M73.88 84.20Q72.36 84.20 71.74 82.60Q71.12 81 71.12 77.48L71.12 77.48Q71.12 72.28 72.60 67.60L72.60 67.60Q72.96 66.44 73.78 65.90Q74.60 65.36 76.08 65.36L76.08 65.36Q76.88 65.36 77.20 65.56Q77.52 65.76 77.52 66.32L77.52 66.32Q77.52 66.96 76.92 69.20L76.92 69.20Q76.52 70.80 76.28 72Q76.04 73.20 75.88 74.96L75.88 74.96Q77.20 71.52 78.84 69.36Q80.48 67.20 82.06 66.28Q83.64 65.36 84.96 65.36L84.96 65.36Q87.56 65.36 87.56 67.96L87.56 67.96Q87.56 68.48 87.20 70.48L87.20 70.48Q86.88 72.08 86.88 72.48L86.88 72.48Q86.88 73.88 87.88 73.88L87.88 73.88Q89 73.88 90.76 72.12L90.76 72.12Q91.28 71.60 91.84 71.60L91.84 71.60Q92.36 71.60 92.66 72.06Q92.96 72.52 92.96 73.28L92.96 73.28Q92.96 74.76 92.16 75.60L92.16 75.60Q91.04 76.76 89.54 77.58Q88.04 78.40 86.36 78.40L86.36 78.40Q84.24 78.40 83.14 77.32Q82.04 76.24 82.04 74.40L82.04 74.40Q82.04 73.80 82.16 73.20L82.16 73.20Q82.24 72.40 82.24 72.12L82.24 72.12Q82.24 71.48 81.80 71.48L81.80 71.48Q81.20 71.48 80.22 72.82Q79.24 74.16 78.28 76.36Q77.32 78.56 76.72 81L76.72 81Q76.28 82.88 75.70 83.54Q75.12 84.20 73.88 84.20L73.88 84.20Z M105.60 75.08Q106.12 75.08 106.42 75.56Q106.72 76.04 106.72 76.88L106.72 76.88Q106.72 78.48 105.96 79.36L105.96 79.36Q104.24 81.48 102.22 82.84Q100.20 84.20 97.64 84.20L97.64 84.20Q94.12 84.20 92.42 81Q90.72 77.80 90.72 72.72L90.72 72.72Q90.72 67.84 91.98 61.60Q93.24 55.36 95.70 50.88Q98.16 46.40 101.56 46.40L101.56 46.40Q103.48 46.40 104.58 48.18Q105.68 49.96 105.68 53.28L105.68 53.28Q105.68 58.04 103.04 64.32Q100.40 70.60 95.88 76.76L95.88 76.76Q96.16 78.40 96.80 79.10Q97.44 79.80 98.48 79.80L98.48 79.80Q100.12 79.80 101.36 78.86Q102.60 77.92 104.52 75.64L104.52 75.64Q105.00 75.08 105.60 75.08L105.60 75.08ZM100.68 50.36Q99.76 50.36 98.60 53.68Q97.44 57 96.56 61.92Q95.68 66.84 95.60 71.36L95.60 71.36Q98.44 66.68 100.12 61.98Q101.80 57.28 101.80 53.40L101.80 53.40Q101.80 50.36 100.68 50.36L100.68 50.36Z M127.00 75.08Q127.52 75.08 127.82 75.56Q128.12 76.04 128.12 76.88L128.12 76.88Q128.12 78.48 127.36 79.36L127.36 79.36Q125.72 81.36 123.76 82.78Q121.80 84.20 119.88 84.20L119.88 84.20Q116.84 84.20 115.24 80.64L115.24 80.64Q113.56 82.76 112.30 83.48Q111.04 84.20 109.36 84.20L109.36 84.20Q106.92 84.20 105.34 82.38Q103.76 80.56 103.76 77.64L103.76 77.64Q103.76 74.44 105.12 71.70Q106.48 68.96 108.86 67.22Q111.24 65.48 114.20 65.16L114.20 65.16Q114.96 57.40 117.10 51.90Q119.24 46.40 122.72 46.40L122.72 46.40Q124.44 46.40 125.58 47.96Q126.72 49.52 126.72 52.68L126.72 52.68Q126.72 57.16 124.52 63.16Q122.32 69.16 118.64 75.48L118.64 75.48Q118.80 77.80 119.34 78.80Q119.88 79.80 120.72 79.80L120.72 79.80Q121.80 79.80 122.92 78.84Q124.04 77.88 125.92 75.64L125.92 75.64Q126.40 75.08 127.00 75.08L127.00 75.08ZM122.28 50.32Q121.52 50.32 120.76 53.02Q120.00 55.72 119.46 60.08Q118.92 64.44 118.68 69.20L118.68 69.20Q123.16 59.44 123.16 53.52L123.16 53.52Q123.16 52 122.90 51.16Q122.64 50.32 122.28 50.32L122.28 50.32ZM110.76 80.16Q111.52 80.16 112.28 79.54Q113.04 78.92 114.20 77.24L114.20 77.24Q113.80 75.08 113.80 72.40L113.80 72.40Q113.80 71.44 113.88 69.28L113.88 69.28Q111.68 69.96 110.22 72.22Q108.76 74.48 108.76 77.24L108.76 77.24Q108.76 80.16 110.76 80.16L110.76 80.16Z"/></g>
</svg>
</g><g filter="url(#UQXBO_yB8)"><g opacity="1" transform="rotate(-51.6 14 84.6531)">
<svg width="76.5756" height="59.5604" x="14" y="84.6531" version="1.1" preserveAspectRatio="none" viewBox="10.002496719360352 30.000394821166992 179.99746704101562 140.00205993652344">
  <g transform="matrix(1 0 0 1 0 0)" ><g><path d="M23.834 141.31l-.009.068c.028.011.057.019.085.03.012-.041.01-.077.023-.118-.036.014-.064.008-.099.02z" data-color="1" class="aE9UAYldALcolors-0"></path><path d="M188.042 89.846c-.774-7.062-4.564-12.53-7.115-18.514-2.321-5.444-6.58-10.187-10.554-14.731-3.741-4.278-7.612-9.404-12.529-11.434-6.81-2.811-12.175-7.916-19.431-10.214-5.282-1.673-10.877-2.872-16.07-3.999-13.147-2.852-26.377 1.498-39.602 2.585-.456.038-1.046.113-1.322.41-1.78 1.908-3.11.775-5.145.078-2.781-.953-6.151-.557-9.202-.183-2.627.323-5.173 1.388-7.731 2.198-1.421.45-2.794 1.051-4.189 1.583-3.886 1.481-7.053 4.202-10.56 6.239-4.846 2.816-9.15 6.192-13.352 9.755-1.508 1.279-2.188 3.503-3.507 5.072-3.89 4.621-7.65 9.302-9.685 15.122-1.042 2.979-1.686 6.177-3.181 8.9-3.263 5.942-3.743 12.627-4.549 18.975-.753 5.928-.128 12.027 1.553 18.323 1.66 6.218 5.29 11.358 6.944 17.42.288 1.056 1.57 5.023 5.021 3.879.399-2.484.193-4.493-1.654-6.777-1.894-2.343-3.231-5.721-3.462-8.751-.694-9.107-5.395-17.82-2.941-27.171 1.146-4.366 3.169-8.49 4.482-12.82.674-2.223.579-4.674 1.012-6.987.145-.775.85-1.443 1.299-2.161l1.212 1.814 1.471 2.198c.443-.909 1.069-1.772 1.298-2.733 1.741-7.285 5.52-12.951 12.087-16.758 2.792-1.618 5.11-4.047 7.806-5.86 2.869-1.929 5.898-3.625 8.919-5.31 2.432-1.356 4.969-2.522 7.439-3.811 4.115-2.147 8.103-4.712 12.941-4.72 1.42-.002 2.841.611 4.262.942-.802.92-1.71 1.767-2.381 2.775-1.064 1.6-1.985 3.297-2.958 4.958-2.296-.399-3.252.555-2.922 2.808-2.345-.72-2.663 1.676-3.909 2.696-7.198 5.886-11.937 13.557-15.86 21.862-2.591 5.484-5.59 10.791-7.865 16.401-1.58 3.895-1.377 8.714-3.502 12.157-3.67 5.949-1.024 13.194-4.856 18.964-.898 1.353-.548 3.695-.436 5.561.357 5.975-1.859 12.26 2.146 17.851.458.639-.172 2.072-.297 3.137-.771-.251-1.528-.651-2.315-.729-4.998-.495-5.258-5.687-8.151-8.238-.723-.638-1.836-.825-2.788-1.198-1.423 4.755 2.146 7.784 4.422 10.758 5.659 7.393 14.019 11.238 22.424 14.317 5.214 1.91 10.992 2.506 16.578 3.075 13.037 1.328 25.905-.544 38.716-2.823.611-.109 1.228-.223 1.816-.417 5.073-1.672 10.101-3.498 15.221-5.005 4.205-1.237 8.728-1.588 12.733-3.255 5.437-2.264 10.504-5.428 15.749-8.166 2.092-1.092 4.282-1.998 6.347-3.139 2.194-1.212 4.361-2.499 6.415-3.937 3.581-2.506 7.316-4.877 10.504-7.834 2.135-1.98 5.457-3.841 4.103-7.866-3.146-1.3-3.027 2.906-5.233 3.299-.31.055-.45 1.611-.666 1.61-5.139-.013-7.318 5-11.5 6.839-5.666 2.491-10.696 6.435-16.069 9.637-2.526 1.505-5.145 2.905-7.851 4.035-2.623 1.096-5.378 1.924-8.137 2.623-4.944 1.252-9.96 2.217-14.893 3.511-2.145.563-4.096 2.065-6.245 2.384-2.681.398-5.468.068-8.213.026.512-.828.889-1.984 1.615-2.287 2.75-1.148 5.606-2.061 8.468-2.906 3.998-1.18 8.131-1.959 12.028-3.401 3.255-1.204 6.229-3.166 9.371-4.699 2.65-1.293 5.608-2.09 8.002-3.738 7.108-4.894 15.007-8.893 19.802-16.611-2.384-.602-4.235-.734-6.165 1.916-1.329 1.824-4.72 1.98-6.943 3.302-4.815 2.864-8.846 6.799-14.094 9.257-3.158 1.479-5.496 5.039-9.339 6.067-1.516.406-2.904 1.28-4.38 1.862-4.357 1.717-8.729 3.393-13.094 5.089-.14.054-.255.186-.396.224-4.043 1.089-8.046 2.379-12.143 3.19-3.671.726-7.794-.763-10.926 2.607-.489.526-1.8.368-2.731.364-5.258-.021-10.517-.091-15.775-.145.294-2.176-1.139-2.619-2.824-2.81-.747-4.638.553-6.344 5.027-8.288 3.811-1.656 7.391-3.886 10.948-6.071.576-.354.563-1.687.789-2.623-4.526-.699-7.45 2.895-11.154 4.381-2.661 1.068-4.977 3.132-7.684 3.922-2.49.727-5.577 1.365-7.177-2.184-.186-.413-1.299-.401-2.047-.556-.349-2.186 1.329-5.422-2.792-5.657-.014-7.513.131-15.031-.11-22.536-.134-4.158.297-8.308 3.152-11.119 2.807-2.765 2.35-5.779 2.485-8.92l-2.541.036c-.417-3.229-1.074-6.49 2.039-8.964.369-.294.374-1.18.381-1.794.066-5.764 3.496-10.174 6.411-14.518 3.786-5.642 8.622-10.556 12.768-15.968.799-1.043.596-2.87.808-4.373 2.242.381 3.141-.592 2.799-2.819 2.315-.075 4.295.028 6.218-2.437 1.962-2.514 5.474-3.802 8.332-5.586.358-.223.973-.404 1.299-.247 5.791 2.794 11.583 5.592 17.286 8.56.556.289.412 1.766.826 2.569.449.872 1.196 2.303 1.768 2.282 4.844-.179 6.137 4.579 9.314 6.672 1.99 1.311 3.649 3.33 5.035 5.329 1.795 2.587 3.395 5.135 3.691 8.698.557 6.706-.386 13.218-3.468 18.785-3.843 6.943-8.912 13.198-15.391 18.154-3.532 2.701-6.269 6.448-9.747 9.236-4.776 3.828-10.183 6.878-14.8 10.875-2.726 2.36-6.553 3.965-7.527 8.074 5.847.734 9.339-3.916 13.564-6.526 4.717-2.913 8.75-6.965 13.049-10.56 6.827-5.709 13.943-11.119 20.316-17.307 3.641-3.535 6.145-8.299 8.948-12.649.603-.935.364-2.468.389-3.728.083-4.109.131-8.219.151-12.328.016-3.389-.368-6.363-2.763-9.364-3.406-4.269-5.769-9.382-8.642-14.094-.359-.588-1.064-1.012-1.686-1.378-4.016-2.36-8.073-4.647-12.075-7.03a166.298 166.298 0 0 1-7.398-4.7c-.544-.364-.857-1.08-1.276-1.633.569-.417 1.187-1.248 1.699-1.186 5.237.629 10.399-.986 15.78 2.132 8.188 4.745 16.22 9.27 22.083 17.017 1.467 1.939 3.808 3.197 5.722 4.799 5.575 4.667 8.163 11.286 11.356 17.544 2.314 4.535 5.05 8.849 7.492 13.32.419.768.427 1.832.42 2.758-.046 6.259 1.506 12.619-2.382 18.554-1.164 1.777-1.728 3.428-4.016 3.895-.532.109-1.351 1.794-1.157 2.039 1.321 1.659 6.383.755 7.828-.765 2.464-2.592 2.733-5.679 2.993-8.945.106-1.326.812-2.625 1.357-3.888 1.355-3.137 1.796-6.129-.322-9.22-.732-1.068-1.069-2.653-1.024-3.982.202-6.064-2.058-11.042-5.203-16.144-1.764-2.862-2.963-5.887-5.671-8.168-1.644-1.385-.321-4.208 2.259-5.565-.75-.726-1.508-2.014-2.246-2.002-4.768.074-7.712-2.682-10.272-6.194-2.94-4.033-7.455-5.99-11.331-8.793-3.312-2.395-6.496-4.973-9.858-7.291-1.06-.731-2.54-.812-3.772-1.327-.621-.26-1.115-.827-1.666-1.255.586-.403 1.141-1.096 1.762-1.162 5.108-.544 10.042-.325 14.461 2.947 2.576 1.907 5.274 3.796 8.186 5.062 9.604 4.175 18.402 9.43 24.616 18.157 4.209 5.911 8.614 11.798 11.86 18.246 2.183 4.336 2.476 9.637 3.654 14.497.536 2.212 1.159 4.403 1.763 6.598.122.441.58.936.472 1.271-1.38 4.296-3.221 8.483-4.155 12.869-.841 3.951-5.107 6.669-3.799 11.267.764-.002 1.928.224 2.114-.108 2.655-4.73 6.944-8.739 6.47-14.898-.103-1.351.337-2.775.683-4.124.514-2.005 1.532-3.945 1.683-5.963.312-4.192-1.497-8.242-1.922-12.125zm-89.791 71.716c.531-.168 1.094-.231 1.648-.327-.145.6-.212 1.451-.511 1.544-1.225.382-2.538.491-3.826.629-.134.014-.319-.461-.48-.709 1.055-.383 2.1-.798 3.169-1.137zm-35.057-.248l-1.481 2.164-1.023-2.161 2.504-.003zm-9.041-3.004c2.108-.101 4.228.071 6.344.144l-.015 2.713c-2.109.044-4.229.221-6.316.031-.747-.068-1.41-1.079-2.111-1.659.698-.431 1.381-1.195 2.098-1.229zM49.2 147.077c.03 1.368-.195 2.823.216 4.062 1.314 3.958-2.004 5.33-4.081 6.735-1.732 1.172-4.094.071-4.364-2.631-.266-2.662-.316-5.356-.304-8.036.034-7.579.105-15.159.287-22.736.022-.905.824-1.792 1.265-2.687.434.903 1.21 1.793 1.245 2.711.17 4.575.161 9.158.18 13.738.008 1.941.429 3.424 2.767 3.166.687 2.018-1.759 5.657 2.789 5.678zm.036-48.076l-1.356 2.284-1.098-1.218 2.454-1.066z" data-color="1" class="aE9UAYldALcolors-0"></path><path d="M77.547 141.27c-.054-.007-.1.003-.154-.005-.009.034-.013.076-.021.111.047.007.09 0 .137.009.009-.041.028-.074.038-.115z" data-color="1" class="aE9UAYldALcolors-0"></path><path d="M178.939 127.115c.033.014.055.009.089.024-.009-.029-.005-.054-.013-.084-.028 0-.063-.004-.09-.003.008.022.006.04.014.063z" data-color="1" class="aE9UAYldALcolors-0"></path><path d="M174.776 81.79c-.372.387-.992.743-1.045 1.17-.049.402.499.88 1.035 1.715.548-.833 1.106-1.308 1.059-1.711-.05-.428-.675-.786-1.049-1.174z" data-color="1" class="aE9UAYldALcolors-0"></path><path d="M160.473 124.407l-.774 2.703 1.924-2.092-1.15-.611z" data-color="1" class="aE9UAYldALcolors-0"></path><path d="M159.7 127.11l-.221.241c-.019.03-.041.055-.06.086.06.015.116.026.176.042l.105-.369z" data-color="1" class="aE9UAYldALcolors-0"></path><path d="M161.347 66.258l-1.672-1.74.921 2.177.751-.437z" data-color="1" class="aE9UAYldALcolors-0"></path><path d="M159.675 64.518l-.187-.441c-.053.026-.097.062-.149.089l.042.046.294.306z" data-color="1" class="aE9UAYldALcolors-0"></path><path d="M77.297 69.735c-.055-.007-.105-.004-.161-.012.018.074.019.132.033.203l.068-.072c.019-.044.04-.077.06-.119z" data-color="1" class="aE9UAYldALcolors-0"></path><path d="M85.834 64.532c-4.444-.229-6.667 1.126-8.537 5.203 4.479.61 7.933-1.492 8.537-5.203z" data-color="1" class="aE9UAYldALcolors-0"></path><path d="M52.174 98.536c-.044.015-.081.035-.126.05l-.004.121.123-.002c0-.06.008-.11.007-.169z" data-color="1" class="aE9UAYldALcolors-0"></path><path d="M57.688 90.234c-3.591.298-5.527 3.213-5.513 8.302 3.82-1.281 5.485-3.788 5.513-8.302z" data-color="1" class="aE9UAYldALcolors-0"></path><path d="M61.002 87.516c-.027.01-.042.023-.07.032l-.069.054c.063.015.105.002.171.019l-.032-.105z" data-color="1" class="aE9UAYldALcolors-0"></path><path d="M63.062 81.398c-3.646 1.012-2.862 3.562-2.06 6.119 3.274-1.163 2.481-3.704 2.06-6.119z" data-color="1" class="aE9UAYldALcolors-0"></path><path d="M105.452 57.127c-.923-.347-1.862-1-2.762-.949-.805.046-1.567.868-2.347 1.348l2.939 1.611c.824-.765 1.497-1.387 2.17-2.01z" data-color="1" class="aE9UAYldALcolors-0"></path><path d="M65.27 79.122l-1.857 1.975 2.476-.883-.619-1.092z" data-color="1" class="aE9UAYldALcolors-0"></path><path d="M63.413 81.097l-.382.136.03.165c.04-.011.064-.028.104-.038l.248-.263z" data-color="1" class="aE9UAYldALcolors-0"></path><path d="M57.838 89.982l3.025-2.38c-1.996-.458-2.986.358-3.025 2.38z" data-color="1" class="aE9UAYldALcolors-0"></path><path d="M57.838 89.982l-.144.113c0 .049-.006.09-.007.139.043-.004.079-.017.123-.02-.002-.091.026-.145.028-.232z" data-color="1" class="aE9UAYldALcolors-0"></path><path d="M74.18 73.039l.228-.182.083-.088c-.07-.005-.132-.001-.204-.009l-.107.279z" data-color="1" class="aE9UAYldALcolors-0"></path><path d="M73.391 75.113l.79-2.074-1.731 1.384.941.69z" data-color="1" class="aE9UAYldALcolors-0"></path><path d="M74.491 72.769c2.032.142 3.125-.613 2.677-2.843l-2.677 2.843z" data-color="1" class="aE9UAYldALcolors-0"></path><path d="M86.206 64.181l-.344.243c-.006.038-.022.07-.028.108.048.002.088-.001.136.002l.236-.353z" data-color="1" class="aE9UAYldALcolors-0"></path><path d="M87.505 62.237l-1.299 1.944 1.915-1.35-.616-.594z" data-color="1" class="aE9UAYldALcolors-0"></path></g></g>
</svg>
</g></g><g opacity="1" transform="rotate(0 329.65599999999995 147.9461)">
<svg width="100" height="81.25" x="329.65599999999995" y="147.9461" version="1.1" preserveAspectRatio="none" viewBox="20 35 160 130">
  <g transform="matrix(1 0 0 1 0 0)" ><g><path d="M140 35l40 26.9v49.5l-40-26.9V35z" data-color="1" class="ao9bBVflQhcolors-0"></path><path d="M140 35l-40 26.9v49.5l40-26.9V35z" data-color="2" class="ao9bBVflQhcolors-1"></path><path d="M100 111.4l39.9 26.8 40-26.8L140 84.5l-40 26.9z" data-color="3" class="ao9bBVflQhcolors-2"></path><path d="M60 35l40 26.9v49.5L60 84.5V35z" data-color="1" class="ao9bBVflQhcolors-0"></path><path d="M60 35L20 61.9v49.5l40-26.9V35z" data-color="2" class="ao9bBVflQhcolors-1"></path><path d="M20 111.4l40 26.8 40-26.8-40-26.9-40 26.9z" data-color="3" class="ao9bBVflQhcolors-2"></path><path d="M60 138.2l40 26.8 40-26.8-39.9-26.8L60 138.2z" data-color="3" class="ao9bBVflQhcolors-2"></path></g></g>
</svg>
</g></svg>